<svg xmlns="http://www.w3.org/2000/svg" width="64.0" height="64.0" viewBox="0 0 64 64" fill="none" stroke="currentColor" stroke-width="6.8" stroke-linecap="round" stroke-linejoin="round"><path d="M48.03 6.17C47.99 6.29 47.97 6.34 47.77 6.92C47.57 7.51 47.11 8.76 46.84 9.68C46.57 10.6 46.34 11.53 46.15 12.45C45.95 13.37 45.81 14.3 45.67 15.22C45.53 16.14 45.41 17.05 45.31 17.96C45.21 18.87 45.1 19.77 45.04 20.68C44.99 21.58 44.95 22.48 44.99 23.38C45.03 24.27 45.13 25.16 45.29 26.04C45.44 26.91 45.69 27.78 45.92 28.63C46.15 29.48 46.43 30.31 46.65 31.16C46.87 32 47.07 32.83 47.23 33.69C47.39 34.55 47.48 35.42 47.6 36.31C47.73 37.2 47.92 38.22 47.98 39.01C48.04 39.79 47.94 40.38 47.95 41.01C47.97 41.65 48 42.23 48.05 42.81C48.09 43.39 48.18 43.95 48.22 44.5C48.26 45.05 48.3 45.59 48.29 46.12C48.27 46.65 48.21 47.18 48.14 47.69C48.06 48.2 47.93 48.69 47.82 49.19C47.72 49.68 47.6 50.17 47.49 50.66C47.39 51.15 47.3 51.64 47.19 52.13C47.09 52.62 46.99 53.1 46.88 53.59C46.76 54.07 46.62 54.55 46.49 55.03C46.36 55.51 46.2 55.99 46.1 56.48C46 56.97 45.97 57.51 45.91 57.98C45.85 58.45 45.77 59.08 45.74 59.3"/><path d="M35.43 5.31C35.34 5.41 35.28 5.47 34.88 5.89C34.48 6.31 33.64 7.16 33.04 7.83C32.43 8.49 31.88 9.2 31.27 9.86C30.66 10.52 29.97 11.13 29.36 11.79C28.74 12.46 28.08 13.1 27.56 13.86C27.03 14.63 26.74 15.62 26.21 16.39C25.68 17.16 25.07 17.87 24.36 18.47C23.65 19.08 22.7 19.45 21.96 20.03C21.21 20.6 20.56 21.27 19.88 21.92C19.21 22.57 18.57 23.26 17.89 23.91C17.22 24.56 16.5 25.18 15.83 25.83C15.15 26.49 14.54 27.21 13.85 27.85C13.16 28.49 12.22 29.24 11.69 29.69C11.16 30.14 10.85 30.41 10.68 30.56"/><path d="M4.38 55.51C4.48 55.42 4.69 55.22 4.96 54.96C5.23 54.7 5.64 54.29 5.99 53.96C6.35 53.62 6.73 53.3 7.11 52.96C7.48 52.62 7.87 52.27 8.24 51.92C8.62 51.56 8.99 51.18 9.36 50.8C9.73 50.42 10.09 50.02 10.47 49.65C10.86 49.27 11.25 48.89 11.66 48.53C12.07 48.16 12.51 47.82 12.93 47.47C13.36 47.11 13.8 46.76 14.19 46.37C14.59 45.98 14.96 45.58 15.29 45.13C15.61 44.68 15.89 44.18 16.15 43.69C16.41 43.19 16.54 42.61 16.85 42.14C17.17 41.67 17.83 41.08 18.03 40.87C18.16 41.13 18.7 41.9 18.85 42.41C18.99 42.92 18.89 43.43 18.89 43.94C18.89 44.45 18.85 44.96 18.84 45.46C18.84 45.96 18.84 46.46 18.86 46.95C18.87 47.44 18.92 47.93 18.94 48.42C18.97 48.91 19.01 49.39 19.02 49.87C19.03 50.35 19.02 50.83 19.01 51.3C19 51.77 18.97 52.24 18.96 52.7C18.94 53.17 18.93 53.63 18.93 54.08C18.93 54.53 18.95 54.98 18.95 55.42C18.95 55.86 18.95 56.3 18.92 56.73C18.88 57.16 18.8 57.57 18.74 58C18.68 58.43 18.59 59.1 18.56 59.32"/></svg>
